<?xml version="1.0" encoding="UTF-8"?>
<svg xmlns="http://www.w3.org/2000/svg" width="640" height="360" viewBox="0 0 640 360">
  <defs>
    <marker id="arrowAccent" viewBox="0 0 10 10" refX="8" refY="5" markerWidth="5" markerHeight="5" orient="auto-start-reverse">
      <path d="M 0 1 L 9 5 L 0 9 z" fill="#C9FB50"/>
    </marker>
  </defs>

  <rect width="640" height="360" fill="#111118"/>

  <!-- Subtle grid background -->
  <line x1="0" y1="20" x2="640" y2="20" stroke="#1E1E2E" stroke-width="0.5" opacity="0.3"/><line x1="0" y1="40" x2="640" y2="40" stroke="#1E1E2E" stroke-width="0.5" opacity="0.3"/><line x1="0" y1="60" x2="640" y2="60" stroke="#1E1E2E" stroke-width="0.5" opacity="0.3"/><line x1="0" y1="80" x2="640" y2="80" stroke="#1E1E2E" stroke-width="0.5" opacity="0.3"/><line x1="0" y1="100" x2="640" y2="100" stroke="#1E1E2E" stroke-width="0.5" opacity="0.3"/><line x1="0" y1="120" x2="640" y2="120" stroke="#1E1E2E" stroke-width="0.5" opacity="0.3"/><line x1="0" y1="140" x2="640" y2="140" stroke="#1E1E2E" stroke-width="0.5" opacity="0.3"/><line x1="0" y1="160" x2="640" y2="160" stroke="#1E1E2E" stroke-width="0.5" opacity="0.3"/><line x1="0" y1="180" x2="640" y2="180" stroke="#1E1E2E" stroke-width="0.5" opacity="0.3"/><line x1="0" y1="200" x2="640" y2="200" stroke="#1E1E2E" stroke-width="0.5" opacity="0.3"/><line x1="0" y1="220" x2="640" y2="220" stroke="#1E1E2E" stroke-width="0.5" opacity="0.3"/><line x1="0" y1="240" x2="640" y2="240" stroke="#1E1E2E" stroke-width="0.5" opacity="0.3"/><line x1="0" y1="260" x2="640" y2="260" stroke="#1E1E2E" stroke-width="0.5" opacity="0.3"/><line x1="0" y1="280" x2="640" y2="280" stroke="#1E1E2E" stroke-width="0.5" opacity="0.3"/><line x1="0" y1="300" x2="640" y2="300" stroke="#1E1E2E" stroke-width="0.5" opacity="0.3"/><line x1="0" y1="320" x2="640" y2="320" stroke="#1E1E2E" stroke-width="0.5" opacity="0.3"/><line x1="0" y1="340" x2="640" y2="340" stroke="#1E1E2E" stroke-width="0.5" opacity="0.3"/>
  <line x1="20" y1="0" x2="20" y2="360" stroke="#1E1E2E" stroke-width="0.5" opacity="0.3"/><line x1="40" y1="0" x2="40" y2="360" stroke="#1E1E2E" stroke-width="0.5" opacity="0.3"/><line x1="60" y1="0" x2="60" y2="360" stroke="#1E1E2E" stroke-width="0.5" opacity="0.3"/><line x1="80" y1="0" x2="80" y2="360" stroke="#1E1E2E" stroke-width="0.5" opacity="0.3"/><line x1="100" y1="0" x2="100" y2="360" stroke="#1E1E2E" stroke-width="0.5" opacity="0.3"/><line x1="120" y1="0" x2="120" y2="360" stroke="#1E1E2E" stroke-width="0.5" opacity="0.3"/><line x1="140" y1="0" x2="140" y2="360" stroke="#1E1E2E" stroke-width="0.5" opacity="0.3"/><line x1="160" y1="0" x2="160" y2="360" stroke="#1E1E2E" stroke-width="0.5" opacity="0.3"/><line x1="180" y1="0" x2="180" y2="360" stroke="#1E1E2E" stroke-width="0.5" opacity="0.3"/><line x1="200" y1="0" x2="200" y2="360" stroke="#1E1E2E" stroke-width="0.5" opacity="0.3"/><line x1="220" y1="0" x2="220" y2="360" stroke="#1E1E2E" stroke-width="0.5" opacity="0.3"/><line x1="240" y1="0" x2="240" y2="360" stroke="#1E1E2E" stroke-width="0.5" opacity="0.3"/><line x1="260" y1="0" x2="260" y2="360" stroke="#1E1E2E" stroke-width="0.5" opacity="0.3"/><line x1="280" y1="0" x2="280" y2="360" stroke="#1E1E2E" stroke-width="0.5" opacity="0.3"/><line x1="300" y1="0" x2="300" y2="360" stroke="#1E1E2E" stroke-width="0.5" opacity="0.3"/><line x1="320" y1="0" x2="320" y2="360" stroke="#1E1E2E" stroke-width="0.5" opacity="0.3"/><line x1="340" y1="0" x2="340" y2="360" stroke="#1E1E2E" stroke-width="0.5" opacity="0.3"/><line x1="360" y1="0" x2="360" y2="360" stroke="#1E1E2E" stroke-width="0.5" opacity="0.3"/><line x1="380" y1="0" x2="380" y2="360" stroke="#1E1E2E" stroke-width="0.5" opacity="0.3"/><line x1="400" y1="0" x2="400" y2="360" stroke="#1E1E2E" stroke-width="0.5" opacity="0.3"/><line x1="420" y1="0" x2="420" y2="360" stroke="#1E1E2E" stroke-width="0.5" opacity="0.3"/><line x1="440" y1="0" x2="440" y2="360" stroke="#1E1E2E" stroke-width="0.5" opacity="0.3"/><line x1="460" y1="0" x2="460" y2="360" stroke="#1E1E2E" stroke-width="0.5" opacity="0.3"/><line x1="480" y1="0" x2="480" y2="360" stroke="#1E1E2E" stroke-width="0.5" opacity="0.3"/><line x1="500" y1="0" x2="500" y2="360" stroke="#1E1E2E" stroke-width="0.5" opacity="0.3"/><line x1="520" y1="0" x2="520" y2="360" stroke="#1E1E2E" stroke-width="0.5" opacity="0.3"/><line x1="540" y1="0" x2="540" y2="360" stroke="#1E1E2E" stroke-width="0.5" opacity="0.3"/><line x1="560" y1="0" x2="560" y2="360" stroke="#1E1E2E" stroke-width="0.5" opacity="0.3"/><line x1="580" y1="0" x2="580" y2="360" stroke="#1E1E2E" stroke-width="0.5" opacity="0.3"/><line x1="600" y1="0" x2="600" y2="360" stroke="#1E1E2E" stroke-width="0.5" opacity="0.3"/><line x1="620" y1="0" x2="620" y2="360" stroke="#1E1E2E" stroke-width="0.5" opacity="0.3"/>

  <!-- ================= LEFT: sense / estimate ================= -->
  <text x="160" y="40" text-anchor="middle" fill="#F0F0F0" font-size="14" font-weight="bold" font-family="'Space Grotesk', sans-serif" opacity="0.4">Estimate</text>

  <!-- Sensor horizon -->
  <circle cx="150" cy="212" r="96" fill="none" stroke="#C9FB50" stroke-width="1" stroke-dasharray="4,5" opacity="0.22"/>

  <!-- Landmarks (true positions) with offset estimates -->
  <circle cx="70" cy="92" r="13" fill="#2A2A3A" stroke="#A09897" stroke-width="1" opacity="0.5"/>
  <circle cx="73" cy="89" r="2" fill="#C9FB50" opacity="0.8"/>

  <circle cx="141" cy="76" r="9" fill="#2A2A3A" stroke="#A09897" stroke-width="1" opacity="0.5"/>
  <circle cx="138" cy="79" r="2" fill="#C9FB50" opacity="0.8"/>

  <circle cx="216" cy="101" r="16" fill="#2A2A3A" stroke="#A09897" stroke-width="1" opacity="0.55"/>
  <circle cx="219" cy="104" r="2" fill="#C9FB50" opacity="0.8"/>

  <circle cx="105" cy="150" r="11" fill="#2A2A3A" stroke="#C9FB50" stroke-width="1.2" opacity="0.75"/>
  <circle cx="103" cy="147" r="2" fill="#C9FB50"/>

  <circle cx="186" cy="164" r="13" fill="#2A2A3A" stroke="#C9FB50" stroke-width="1.2" opacity="0.75"/>
  <circle cx="189" cy="166" r="2" fill="#C9FB50"/>

  <circle cx="253" cy="146" r="9" fill="#2A2A3A" stroke="#C9FB50" stroke-width="1.2" opacity="0.7"/>
  <circle cx="250" cy="148" r="2" fill="#C9FB50"/>

  <circle cx="252" cy="212" r="11" fill="#2A2A3A" stroke="#A09897" stroke-width="1" opacity="0.45"/>

  <!-- Range / bearing rays to landmarks inside the horizon -->
  <line x1="150" y1="212" x2="105" y2="150" stroke="#C9FB50" stroke-width="1" stroke-dasharray="3,3" opacity="0.45"/>
  <line x1="150" y1="212" x2="186" y2="164" stroke="#C9FB50" stroke-width="1" stroke-dasharray="3,3" opacity="0.45"/>
  <line x1="150" y1="212" x2="253" y2="146" stroke="#C9FB50" stroke-width="1" stroke-dasharray="3,3" opacity="0.35"/>

  <!-- Travelled trajectory -->
  <path d="M 52 244 Q 92 240 118 228 T 150 212" fill="none" stroke="#A09897" stroke-width="1.5" stroke-dasharray="5,4" opacity="0.55"/>
  <circle cx="52" cy="244" r="2.5" fill="#A09897" opacity="0.6"/>

  <!-- Particle cloud around the current pose -->
  <circle cx="142" cy="205" r="1.6" fill="#F0F0F0" opacity="0.5"/>
  <circle cx="159" cy="204" r="1.6" fill="#F0F0F0" opacity="0.45"/>
  <circle cx="137" cy="218" r="1.6" fill="#F0F0F0" opacity="0.4"/>
  <circle cx="163" cy="219" r="1.6" fill="#F0F0F0" opacity="0.5"/>
  <circle cx="150" cy="197" r="1.6" fill="#F0F0F0" opacity="0.35"/>
  <circle cx="147" cy="226" r="1.6" fill="#F0F0F0" opacity="0.4"/>
  <circle cx="168" cy="211" r="1.6" fill="#F0F0F0" opacity="0.3"/>
  <circle cx="132" cy="209" r="1.6" fill="#F0F0F0" opacity="0.35"/>

  <!-- Drone: body, arms, rotors -->
  <line x1="136" y1="206" x2="164" y2="218" stroke="#C9FB50" stroke-width="1.6"/>
  <line x1="136" y1="218" x2="164" y2="206" stroke="#C9FB50" stroke-width="1.6"/>
  <ellipse cx="136" cy="206" rx="5" ry="1.8" fill="#C9FB50" opacity="0.55"/>
  <ellipse cx="164" cy="206" rx="5" ry="1.8" fill="#C9FB50" opacity="0.55"/>
  <ellipse cx="136" cy="218" rx="5" ry="1.8" fill="#C9FB50" opacity="0.55"/>
  <ellipse cx="164" cy="218" rx="5" ry="1.8" fill="#C9FB50" opacity="0.55"/>
  <rect x="144" y="207" width="12" height="10" rx="2.5" fill="#2A2A3A" stroke="#C9FB50" stroke-width="1.4"/>

  <!-- ================= RIGHT: plan / act ================= -->
  <text x="490" y="40" text-anchor="middle" fill="#F0F0F0" font-size="14" font-weight="bold" font-family="'Space Grotesk', sans-serif" opacity="0.4">Plan</text>

  <!-- Policy grid cells -->
  <rect x="402" y="80" width="44" height="44" fill="none" stroke="#1E1E2E" stroke-width="1"/>
  <rect x="446" y="80" width="44" height="44" fill="none" stroke="#1E1E2E" stroke-width="1"/>
  <rect x="490" y="80" width="44" height="44" fill="none" stroke="#1E1E2E" stroke-width="1"/>
  <rect x="534" y="80" width="44" height="44" fill="none" stroke="#1E1E2E" stroke-width="1"/>
  <rect x="402" y="124" width="44" height="44" fill="none" stroke="#1E1E2E" stroke-width="1"/>
  <rect x="446" y="124" width="44" height="44" fill="none" stroke="#1E1E2E" stroke-width="1"/>
  <rect x="490" y="124" width="44" height="44" fill="none" stroke="#1E1E2E" stroke-width="1"/>
  <rect x="534" y="124" width="44" height="44" fill="none" stroke="#1E1E2E" stroke-width="1"/>
  <rect x="402" y="168" width="44" height="44" fill="none" stroke="#1E1E2E" stroke-width="1"/>
  <rect x="446" y="168" width="44" height="44" fill="none" stroke="#1E1E2E" stroke-width="1"/>
  <rect x="490" y="168" width="44" height="44" fill="none" stroke="#1E1E2E" stroke-width="1"/>
  <rect x="534" y="168" width="44" height="44" fill="#C9FB50" fill-opacity="0.14" stroke="#C9FB50" stroke-width="1.2"/>

  <!-- Obstacle cell -->
  <rect x="446" y="124" width="44" height="44" fill="#2A2A3A" opacity="0.85"/>
  <line x1="452" y1="130" x2="484" y2="162" stroke="#A09897" stroke-width="1" opacity="0.35"/>
  <line x1="484" y1="130" x2="452" y2="162" stroke="#A09897" stroke-width="1" opacity="0.35"/>

  <!-- Policy arrows, all flowing toward the goal cell -->
  <g stroke="#C9FB50" stroke-width="1.6" marker-end="url(#arrowAccent)" opacity="0.85">
    <line x1="418" y1="94" x2="430" y2="106"/>
    <line x1="462" y1="96" x2="474" y2="96"/>
    <line x1="506" y1="94" x2="518" y2="106"/>
    <line x1="556" y1="90" x2="556" y2="106"/>

    <line x1="418" y1="138" x2="418" y2="154"/>
    <line x1="506" y1="138" x2="518" y2="150"/>
    <line x1="556" y1="134" x2="556" y2="150"/>

    <line x1="418" y1="190" x2="434" y2="190"/>
    <line x1="462" y1="190" x2="478" y2="190"/>
    <line x1="506" y1="190" x2="522" y2="190"/>
  </g>

  <!-- Goal marker -->
  <circle cx="556" cy="190" r="5" fill="#C9FB50" opacity="0.9"/>

  <!-- Smoothed continuous path overlaid on the discrete policy -->
  <path d="M 418 96 Q 408 150 440 186 T 552 190" fill="none" stroke="#F0F0F0" stroke-width="1.6" opacity="0.4"/>

  <!-- Arrow connecting estimate to plan -->
  <line x1="290" y1="160" x2="368" y2="160" stroke="#A09897" stroke-width="1.5" stroke-dasharray="5,3" opacity="0.5"/>
  <polygon points="363,155 373,160 363,165" fill="#A09897" opacity="0.5"/>

  <!-- Title overlay -->
  <text x="320" y="260" text-anchor="middle" fill="#F0F0F0" font-size="22" font-weight="bold" font-family="'Space Grotesk', sans-serif" opacity="0.9">RAIT</text>
  <text x="320" y="285" text-anchor="middle" fill="#C9FB50" font-size="14" font-family="var(--font-mono)">Robotics: AI Techniques</text>
  <text x="320" y="305" text-anchor="middle" fill="#A09897" font-size="11" font-family="var(--font-mono)">CS 7638 - Georgia Tech OMSCS</text>

  <!-- Floating accent particles -->
  <circle cx="80" cy="300" r="2" fill="#C9FB50" opacity="0.3"/>
  <circle cx="120" cy="320" r="1.5" fill="#C9FB50" opacity="0.4"/>
  <circle cx="550" cy="280" r="2" fill="#C9FB50" opacity="0.2"/>
  <circle cx="580" cy="310" r="1.5" fill="#C9FB50" opacity="0.3"/>
</svg>
